<svg width="80" height="80" viewBox="0 0 80 80" fill="none" xmlns="http://www.w3.org/2000/svg">
<circle cx="40" cy="31.667" r="5" stroke="#D23E01" stroke-width="2"/>
<circle cx="26.6668" cy="36.6663" r="3.33333" stroke="#D23E01" stroke-width="2"/>
<ellipse cx="53.3333" cy="36.6663" rx="3.33333" ry="3.33333" stroke="#D23E01" stroke-width="2"/>
<path d="M31.6665 47.667C31.6665 44.3533 34.3528 41.667 37.6665 41.667H42.3332C45.6469 41.667 48.3332 44.3533 48.3332 47.667V53.3337H31.6665V47.667Z" stroke="#D23E01" stroke-width="2"/>
<path d="M31.7267 46.8132L32.7168 46.9542L32.785 46.4748L32.4512 46.124L31.7267 46.8132ZM31.6665 53.3333V54.3333H32.6665V53.3333H31.6665ZM21.6665 53.3333H20.6665V54.3333H21.6665V53.3333ZM32.6665 47.6667C32.6665 47.4242 32.6837 47.1864 32.7168 46.9542L30.7367 46.6723C30.6904 46.9976 30.6665 47.3296 30.6665 47.6667H32.6665ZM32.6665 53.3333V47.6667H30.6665V53.3333H32.6665ZM31.6665 52.3333H30.8332V54.3333H31.6665V52.3333ZM30.8332 52.3333H21.6665V54.3333H30.8332V52.3333ZM22.6665 53.3333V50.8333H20.6665V53.3333H22.6665ZM22.6665 50.8333C22.6665 48.164 24.8305 46 27.4998 46V44C23.7259 44 20.6665 47.0594 20.6665 50.8333H22.6665ZM27.4998 46C28.8782 46 30.1205 46.5757 31.0022 47.5025L32.4512 46.124C31.2077 44.8168 29.4483 44 27.4998 44V46Z" fill="#D23E01"/>
<path d="M48.2733 46.8132L47.2833 46.9542L47.215 46.4748L47.5488 46.124L48.2733 46.8132ZM48.3335 53.3333V54.3333H47.3335V53.3333H48.3335ZM58.3335 53.3333H59.3335V54.3333H58.3335V53.3333ZM47.3335 47.6667C47.3335 47.4242 47.3163 47.1864 47.2833 46.9542L49.2633 46.6723C49.3096 46.9976 49.3335 47.3296 49.3335 47.6667H47.3335ZM47.3335 53.3333V47.6667H49.3335V53.3333H47.3335ZM48.3335 52.3333H49.1668V54.3333H48.3335V52.3333ZM49.1668 52.3333H58.3335V54.3333H49.1668V52.3333ZM57.3335 53.3333V50.8333H59.3335V53.3333H57.3335ZM57.3335 50.8333C57.3335 48.164 55.1695 46 52.5002 46V44C56.2741 44 59.3335 47.0594 59.3335 50.8333H57.3335ZM52.5002 46C51.1218 46 49.8795 46.5757 48.9978 47.5025L47.5488 46.124C48.7923 44.8168 50.5517 44 52.5002 44V46Z" fill="#D23E01"/>
<rect x="1" y="1" width="78" height="78" rx="39" stroke="#D23E01" stroke-width="2"/>
</svg>
