<svg width="350" height="175" viewBox="0 0 350 175" fill="none" xmlns="http://www.w3.org/2000/svg">
<path fill-rule="evenodd" clip-rule="evenodd" d="M129.641 137.263L94.0954 174.922C105.583 154.551 114.449 138.001 119.016 129.475L119.016 129.475L119.016 129.475L119.017 129.473L119.02 129.467L119.022 129.464C120.199 127.267 121.09 125.604 121.666 124.547C123.281 121.616 124.091 120.051 125.363 117.593C125.527 117.276 125.699 116.944 125.881 116.592C130.73 107.314 131.171 106.16 131.334 105.735C131.374 105.63 131.397 105.57 131.464 105.444C131.977 104.457 133.002 102.251 133.344 101.322C133.401 101.147 133.401 100.799 133.23 100.509C132.591 99.3689 129.264 100.461 127.949 100.893L127.949 100.893L127.945 100.895C127.882 100.915 127.825 100.934 127.772 100.951C127.749 100.959 127.726 100.966 127.704 100.973C120.583 103.412 114.659 114.676 114.659 114.676C111.982 119.147 101.899 135.521 87.2013 145.218C77.9728 151.315 72.6749 150.966 71.1938 150.792C62.421 149.863 56.8952 143.94 55.699 141.211C54.9907 139.587 54.4062 137.96 53.8419 136.388L53.8418 136.388C52.0459 131.387 50.4545 126.956 45.7299 125.012C39.4636 122.457 39.2357 124.083 39.2357 124.083C39.2642 124.199 39.2927 124.3 39.3212 124.402L39.3213 124.402C39.3497 124.504 39.3782 124.605 39.4066 124.721C42.7103 135.578 45.4445 143.939 45.8437 145.159L45.8439 145.16C47.7454 150.86 51.953 161.43 57.8737 175L22.2595 137.321C-7.41984 105.909 -7.41984 54.9865 22.2595 23.5739C37.0707 7.83863 56.4962 0 75.9216 0C80.0949 0 84.2681 0.387782 88.3882 1.10924C87.927 1.65876 87.5129 2.12049 87.3716 2.26454C86.6311 2.99029 85.8906 3.73055 85.1501 4.47082L85.1499 4.47096C84.4094 5.21128 83.6688 5.9516 82.9283 6.67739C80.5047 9.10434 78.0494 11.4666 75.586 13.8366L75.5841 13.8384L75.5772 13.845C74.7431 14.6475 73.9081 15.4509 73.0731 16.2579C70.3395 18.8605 67.5426 21.3823 64.7408 23.9085C62.2292 26.173 59.7138 28.441 57.2365 30.7739C56.3563 31.6015 55.477 32.4333 54.5967 33.266L54.5926 33.2699L54.5915 33.271L54.5914 33.271C48.8654 38.6877 43.0965 44.1449 36.7287 48.7737C33.1968 51.3285 29.494 53.6511 25.7342 55.8575C25.5 55.9957 24.8575 56.3379 23.9956 56.797C20.875 58.4591 14.8783 61.6531 14.9676 62.2445C14.9676 62.2445 15.7082 66.8316 23.9683 66.0767C32.1714 65.2638 40.4315 61.4897 44.9318 58.4123L45.4445 58.0639C48.2199 56.1003 50.9018 54.0032 53.5866 51.9038L53.5866 51.9037L53.5867 51.9037C55.5859 50.3404 57.5867 48.7757 59.6291 47.264C62.3065 45.2318 64.9839 43.3157 67.7753 41.4576C70.0754 39.9612 72.8801 38.9361 75.503 37.9774L75.5037 37.9772C75.9337 37.82 76.3587 37.6647 76.7759 37.5093C79.966 36.29 83.327 35.3029 86.8019 35.3609C93.0682 35.4771 99.2206 39.1932 102.468 44.6512C104.318 47.7948 104.239 51.241 104.159 54.7276C104.128 56.071 104.097 57.4203 104.177 58.7607C104.404 62.8832 105.373 67.0058 108.62 69.7928C113.861 74.3799 114.601 72.8702 114.601 72.8702C114.601 72.8702 115.342 42.2125 114.601 31.9352C114.483 30.2968 114.362 28.7852 114.25 27.3846C113.659 19.9997 113.315 15.6983 114.943 12.1354C115 11.9902 115.071 11.8451 115.143 11.6999C115.162 11.6601 115.182 11.6202 115.201 11.5803C115.248 11.6104 115.295 11.6406 115.342 11.6708C120.469 14.9224 125.254 18.9288 129.641 23.5739C159.32 54.9284 159.32 105.909 129.641 137.263ZM109.133 117.405C108.336 119.554 103.038 124.141 101.842 124.431L100.19 125.534C100.19 125.534 100.019 124.953 100.645 122.166C101.272 119.379 104.633 106.779 107.254 101.554C109.874 96.328 113.349 97.4312 114.089 97.8957C114.83 98.3602 109.874 115.257 109.133 117.405ZM85.9478 141.734C87.315 141.269 93.0686 135.347 93.7522 132.734C94.4358 130.121 98.5373 109.915 97.5689 109.45C96.6574 108.986 92.4989 108.057 89.9924 114.444C87.4859 120.831 84.7515 135.87 84.2958 139.179C83.8401 142.489 84.0679 143.186 84.0679 143.186L85.9478 141.734ZM69.5417 45.2317C71.4786 44.0705 73.4724 43.1995 75.6371 42.5027C75.6723 42.4669 75.7075 42.4531 75.7562 42.4342C75.7862 42.4225 75.8215 42.4088 75.865 42.3866L75.8651 42.3866C76.0365 42.3283 77.4032 41.864 77.9157 41.7479C77.9157 41.806 77.9157 42.5608 76.4346 45.5801C74.8965 48.6575 67.434 62.4186 62.9337 67.7605C58.4333 73.1024 54.6735 70.7798 53.933 70.025C53.1924 69.2702 63.6742 50.922 65.1553 48.6575C66.1212 47.2354 67.8455 46.2255 69.2803 45.385L69.2827 45.3836C69.3702 45.3324 69.4566 45.2818 69.5417 45.2317ZM54.5598 56.9026C53.8192 57.0187 53.0217 57.1929 52.2812 57.4252C52.1103 57.4832 51.9252 57.5413 51.7401 57.5993L51.7399 57.5994C51.5548 57.6574 51.3697 57.7155 51.1988 57.7736C51.0279 57.8316 50.857 57.8897 50.6291 57.9477C50.5437 57.9768 50.444 58.0203 50.3443 58.0639C50.2446 58.1074 50.1449 58.151 50.0595 58.18L49.8362 58.2661C48.2122 58.892 46.1327 59.6935 44.9895 61.0251C43.5084 62.8251 32.7417 77.225 33.2544 77.9217C33.8241 78.6766 36.7294 80.9991 41.1158 76.9346C45.4452 72.8702 53.2496 62.0703 54.7877 59.6316L54.7877 59.6315C55.4144 58.6444 56.041 57.6574 56.4397 56.6123L56.4397 56.6123C55.927 56.7284 55.927 56.7284 55.6991 56.7284C55.4143 56.7284 55.0155 56.7865 54.5598 56.9026Z" fill="url(#paint0_radial_1_527)"/>
<path d="M193.685 9.34828H208.724C220.858 9.34828 229.232 18.1159 229.232 29.6126C229.232 41.0511 220.858 49.8769 208.724 49.8769H193.685V9.34828ZM208.724 41.864C215.674 41.864 220.345 36.9286 220.345 29.6126C220.345 22.4126 215.674 17.3611 208.724 17.3611H202.173V41.806H208.724V41.864Z" fill="#F26432"/>
<path d="M236.694 9.34828H265.747V17.245H245.125V25.49H263.298V33.4448H245.125V41.9802H266.032V49.8769H236.694V9.34828Z" fill="#F26432"/>
<path d="M273.153 44.0125L278.166 37.6835C281.64 40.7028 285.286 42.6189 289.673 42.6189C293.148 42.6189 295.255 41.1673 295.255 38.6706C295.255 36.4061 293.945 35.2448 287.508 33.5029C279.761 31.4126 274.748 29.1481 274.748 20.9611C274.748 13.587 280.387 8.70964 288.249 8.70964C293.888 8.70964 298.673 10.5677 302.547 13.8773L298.161 20.6127C294.743 18.116 291.382 16.6063 288.135 16.6063C284.888 16.6063 283.179 18.174 283.179 20.2643C283.179 22.9353 284.831 23.8062 291.496 25.6062C299.3 27.7546 303.743 30.7158 303.743 37.9158C303.743 45.9866 297.876 50.5156 289.559 50.5156C283.691 50.4576 277.767 48.3092 273.153 44.0125Z" fill="#F26432"/>
<path d="M325.676 9.05798H333.48L350 49.9349H341.113L337.581 40.8189H321.289L317.757 49.9349H309.098L325.676 9.05798ZM334.619 32.9222L329.492 19.7417L324.365 32.9222H334.619Z" fill="#F26432"/>
<path d="M193.685 67.2961H209.465C218.693 67.2961 224.219 73.0444 224.219 81.4056C224.219 90.8119 217.269 95.6893 208.61 95.6893H202.173V107.883H193.685V67.2961V67.2961ZM208.895 87.7345C213.11 87.7345 215.617 85.0636 215.617 81.4636C215.617 77.4572 212.997 75.3089 208.724 75.3089H202.173V87.7345H208.895V87.7345Z" fill="#F26432"/>
<path d="M242.049 67.0057H249.854L266.374 107.883H257.487L253.955 98.7667H237.663L234.131 107.883H225.472L242.049 67.0057ZM250.993 90.87L245.866 77.6895L240.739 90.87H250.993Z" fill="#F26432"/>
<path d="M274.577 67.2961H292.236C297.135 67.2961 300.952 68.7477 303.458 71.4186C305.623 73.6831 306.763 76.8766 306.763 80.8249C306.763 87.3861 303.402 91.5087 298.502 93.4248L307.902 107.883H297.99L289.616 94.8764H283.065V107.883H274.577V67.2961ZM291.667 86.9797C295.825 86.9797 298.161 84.6571 298.161 81.1152C298.161 77.283 295.654 75.3089 291.496 75.3089H283.065V86.9797H291.667Z" fill="#F26432"/>
<path d="M316.618 67.2961H345.671V75.1927H325.049V83.4378H343.221V91.3926H325.049V99.928H345.956V107.825H316.618V67.2961Z" fill="#F26432"/>
<path d="M191.976 145.508C191.976 133.953 200.236 124.547 212.085 124.547C219.377 124.547 223.421 127.45 227.01 131.166L221.94 137.321C218.978 134.476 216.415 132.792 212.028 132.792C205.534 132.792 200.863 138.482 200.863 145.566C200.863 152.534 205.42 158.34 212.028 158.34C216.415 158.34 219.149 156.482 222.168 153.579L227.58 159.676C223.592 164.147 219.206 166.585 211.743 166.585C200.407 166.469 191.976 157.295 191.976 145.508Z" fill="#F26432"/>
<path d="M249.398 125.244H240.91V165.83H249.398V125.244Z" fill="#F26432"/>
<path d="M262.386 125.244H277.425C289.559 125.244 297.933 134.011 297.933 145.508C297.933 156.947 289.559 165.772 277.425 165.772H262.386V125.244ZM277.425 157.76C284.375 157.76 289.046 152.824 289.046 145.508C289.046 138.308 284.375 133.257 277.425 133.257H270.874V157.702H277.425V157.76Z" fill="#F26432"/>
<path d="M304.826 145.508C304.826 133.953 313.485 124.547 325.391 124.547C337.297 124.547 345.842 133.895 345.842 145.508C345.842 157.063 337.183 166.469 325.277 166.469C313.371 166.469 304.826 157.179 304.826 145.508ZM336.955 145.508C336.955 138.54 332.113 132.734 325.277 132.734C318.441 132.734 313.713 138.424 313.713 145.508C313.713 152.476 318.555 158.282 325.391 158.282C332.227 158.282 336.955 152.592 336.955 145.508Z" fill="#F26432"/>
<defs>
<radialGradient id="paint0_radial_1_527" cx="0" cy="0" r="1" gradientUnits="userSpaceOnUse" gradientTransform="translate(75.9444 87.5131) scale(75.9555 87.5062)">
<stop stop-color="#F18536"/>
<stop offset="0.00233548" stop-color="#F18536"/>
<stop offset="0.3115" stop-color="#F27334"/>
<stop offset="0.6457" stop-color="#F26832"/>
<stop offset="0.999" stop-color="#F26432"/>
<stop offset="1" stop-color="#F26432"/>
</radialGradient>
</defs>
</svg>
