<svg width="98" height="48" viewBox="0 0 98 48" fill="none" xmlns="http://www.w3.org/2000/svg">
<path fill-rule="evenodd" clip-rule="evenodd" d="M36.0391 37.6493L26.1577 47.9786C29.3509 42.3916 31.8154 37.8524 33.0852 35.5138L33.0854 35.5133L33.0855 35.5131L33.0856 35.513C33.4135 34.909 33.6617 34.4519 33.8221 34.1615C34.271 33.3574 34.4962 32.9282 34.85 32.254L34.85 32.254L34.994 31.9796C36.3419 29.4348 36.4645 29.1182 36.5097 29.0015C36.5208 28.9729 36.5272 28.9563 36.5459 28.9218C36.6885 28.6511 36.9735 28.0459 37.0685 27.7911C37.0844 27.7433 37.0844 27.6477 37.0369 27.5681C36.8592 27.2555 35.9345 27.5551 35.5687 27.6736L35.5008 27.6955C33.5212 28.3644 31.8743 31.4541 31.8743 31.4541C31.13 32.6804 28.327 37.1715 24.2413 39.8312C21.6758 41.5034 20.203 41.4079 19.7913 41.3601C17.3525 41.1053 15.8164 39.4808 15.4839 38.7323C15.2869 38.2867 15.1245 37.8403 14.9676 37.4092C14.4683 36.0376 14.0259 34.8221 12.7125 34.2889C10.9705 33.5882 10.9072 34.0341 10.9072 34.0341C10.9151 34.0659 10.923 34.0938 10.931 34.1217C10.9389 34.1495 10.9468 34.1774 10.9547 34.2093C11.8731 37.1872 12.6332 39.4804 12.7442 39.8152L12.7442 39.8153C13.2728 41.3788 14.4425 44.2778 16.0884 48L6.18798 37.6652C-2.06266 29.0492 -2.06266 15.082 6.18798 6.46599C10.3054 2.15002 15.7055 0 21.1056 0C22.2657 0 23.4259 0.106362 24.5712 0.304245C24.443 0.454973 24.3279 0.581619 24.2886 0.62113C24.0828 0.820115 23.8771 1.02308 23.6713 1.22604L23.671 1.22632C23.4651 1.42938 23.2593 1.63244 23.0534 1.83151C22.3797 2.49719 21.6971 3.14512 21.0123 3.79518C20.7796 4.01605 20.5467 4.23717 20.3137 4.45932C19.5538 5.17315 18.7763 5.86485 17.9974 6.55775C17.2992 7.17887 16.6 7.80096 15.9113 8.44084C15.6661 8.66825 15.4213 8.8968 15.1761 9.12561L15.176 9.12574C13.5842 10.6115 11.9805 12.1083 10.2103 13.3779C9.22843 14.0787 8.19908 14.7157 7.15389 15.3209C7.08878 15.3588 6.91024 15.4526 6.67072 15.5785L6.67066 15.5786L6.67055 15.5786C5.80305 16.0345 4.13603 16.9106 4.16085 17.0728C4.16085 17.0728 4.36673 18.3309 6.66297 18.1239C8.94338 17.9009 11.2396 16.8657 12.4907 16.0217L12.6332 15.9261C13.4048 15.3875 14.1503 14.8123 14.8967 14.2364C15.4524 13.8076 16.0086 13.3785 16.5764 12.9639C17.3207 12.4064 18.065 11.8809 18.841 11.3712C19.4804 10.9608 20.2601 10.6796 20.9892 10.4167L20.9892 10.4167L20.9894 10.4166C21.1089 10.3735 21.2271 10.3309 21.3431 10.2883C22.2299 9.95382 23.1642 9.68308 24.1302 9.699C25.8722 9.73085 27.5825 10.7501 28.4852 12.2472C28.9996 13.1094 28.9776 14.0547 28.9554 15.011C28.9468 15.3795 28.9382 15.7496 28.9603 16.1172C29.0236 17.248 29.2928 18.3787 30.1955 19.1432C31.6524 20.4013 31.8583 19.9873 31.8583 19.9873C31.8583 19.9873 32.0642 11.5783 31.8583 8.75936C31.8255 8.30997 31.7918 7.89538 31.7607 7.51121C31.5964 5.48564 31.5007 4.30583 31.9533 3.32857C31.9691 3.28877 31.9889 3.24897 32.0087 3.20917L32.0087 3.20911C32.0142 3.19818 32.0196 3.18724 32.025 3.17631C32.0381 3.18457 32.0512 3.19285 32.0643 3.20114C33.4895 4.09301 34.8197 5.19191 36.0391 6.46599C44.2898 15.0661 44.2898 29.0492 36.0391 37.6493ZM30.3382 32.2026C30.1165 32.7918 28.6437 34.05 28.3112 34.1296L27.8519 34.4322C27.8519 34.4322 27.8044 34.273 27.9786 33.5085C28.1528 32.7441 29.0872 29.2881 29.8156 27.8547C30.5441 26.4214 31.5101 26.724 31.716 26.8514C31.9218 26.9788 30.5441 31.6133 30.3382 32.2026ZM23.8928 38.8756C24.2729 38.7482 25.8723 37.1237 26.0624 36.4071C26.2524 35.6904 27.3926 30.1481 27.1234 30.0207C26.87 29.8933 25.714 29.6385 25.0172 31.3903C24.3204 33.1422 23.5602 37.2671 23.4336 38.1749C23.3069 39.0826 23.3702 39.2738 23.3702 39.2738L23.8928 38.8756ZM19.332 12.4064C19.8704 12.0879 20.4247 11.849 21.0265 11.6579C21.0363 11.6481 21.0461 11.6443 21.0596 11.6391C21.0679 11.6359 21.0777 11.6321 21.0898 11.626C21.1373 11.6101 21.5174 11.4827 21.6599 11.4509C21.6599 11.4668 21.6599 11.6738 21.2482 12.502C20.8206 13.3461 18.7461 17.1205 17.495 18.5857C16.244 20.0509 15.1988 19.4139 14.9929 19.2069C14.787 18.9998 17.7009 13.9672 18.1126 13.3461C18.3811 12.956 18.8605 12.679 19.2593 12.4485L19.332 12.4064ZM15.1672 15.6076C14.9613 15.6394 14.7396 15.6872 14.5337 15.7509C14.4862 15.7668 14.4347 15.7828 14.3833 15.7987C14.3318 15.8146 14.2803 15.8305 14.2328 15.8465C14.1853 15.8624 14.1378 15.8783 14.0745 15.8942C14.0507 15.9022 14.023 15.9141 13.9953 15.9261L13.9953 15.9261L13.9953 15.9261C13.9676 15.938 13.9398 15.95 13.9161 15.9579L13.854 15.9816C13.4026 16.1532 12.8245 16.3731 12.5067 16.7383C12.095 17.232 9.10191 21.1817 9.24443 21.3728C9.4028 21.5799 10.2104 22.2169 11.4298 21.1021C12.6334 19.9872 14.8029 17.025 15.2305 16.3561L15.2305 16.3561L15.2305 16.356C15.4047 16.0853 15.5789 15.8146 15.6898 15.5279C15.5472 15.5598 15.5472 15.5598 15.4839 15.5598C15.4047 15.5598 15.2938 15.5757 15.1672 15.6076Z" fill="url(#paint0_radial_170_1360)"/>
<path d="M53.8428 2.56348H58.0235C61.3966 2.56348 63.7245 4.96832 63.7245 8.12168C63.7245 11.2591 61.3966 13.6799 58.0235 13.6799H53.8428V2.56348ZM58.0235 11.4821C59.9555 11.4821 61.2541 10.1284 61.2541 8.12168C61.2541 6.14685 59.9555 4.76128 58.0235 4.76128H56.2023V11.4662H58.0235V11.4821Z" fill="#F26432"/>
<path d="M65.7988 2.56348H73.8753V4.72942H68.1425V6.99093H73.1943V9.1728H68.1425V11.5139H73.9544V13.6799H65.7988V2.56348Z" fill="#F26432"/>
<path d="M75.9341 12.0717L77.3276 10.3358C78.2936 11.1639 79.3072 11.6895 80.5266 11.6895C81.4926 11.6895 82.0785 11.2914 82.0785 10.6065C82.0785 9.98542 81.7143 9.66689 79.9248 9.18911C77.7711 8.61577 76.3775 7.99466 76.3775 5.74908C76.3775 3.72646 77.9453 2.38867 80.1307 2.38867C81.6984 2.38867 83.0287 2.89831 84.1055 3.80609L82.8861 5.65352C81.936 4.9687 81.0016 4.55462 80.099 4.55462C79.1963 4.55462 78.7212 4.98462 78.7212 5.55796C78.7212 6.29056 79.1805 6.52946 81.0333 7.02317C83.2029 7.61243 84.4381 8.42466 84.4381 10.3995C84.4381 12.6132 82.8069 13.8555 80.4949 13.8555C78.8637 13.8395 77.2168 13.2503 75.9341 12.0717Z" fill="#F26432"/>
<path d="M90.5351 2.48438H92.7046L97.2971 13.6963H94.8267L93.8448 11.1959H89.3157L88.3338 13.6963H85.9268L90.5351 2.48438ZM93.0214 9.02999L91.5961 5.41477L90.1709 9.02999H93.0214Z" fill="#F26432"/>
<path d="M53.8428 18.458H58.2294C60.7948 18.458 62.3309 20.0347 62.3309 22.328C62.3309 24.9081 60.3989 26.2459 57.9918 26.2459H56.2023V29.5903H53.8428V18.458V18.458ZM58.071 24.064C59.2429 24.064 59.9397 23.3314 59.9397 22.344C59.9397 21.2451 59.2112 20.6558 58.0235 20.6558H56.2023V24.064H58.071V24.064Z" fill="#F26432"/>
<path d="M67.2875 18.3789H69.4571L74.0496 29.5909H71.5791L70.5973 27.0905H66.0682L65.0863 29.5909H62.6792L67.2875 18.3789ZM69.7738 24.9245L68.3485 21.3093L66.9233 24.9245H69.7738Z" fill="#F26432"/>
<path d="M76.3301 18.458H81.2393C82.6012 18.458 83.6622 18.8562 84.359 19.5888C84.9608 20.2099 85.2775 21.0858 85.2775 22.1688C85.2775 23.9684 84.3432 25.0992 82.9813 25.6247L85.5942 29.5903H82.8387L80.5108 26.0229H78.6896V29.5903H76.3301V18.458ZM81.0809 23.857C82.237 23.857 82.8862 23.2199 82.8862 22.2484C82.8862 21.1973 82.1894 20.6558 81.0334 20.6558H78.6896V23.857H81.0809Z" fill="#F26432"/>
<path d="M88.0171 18.458H96.0935V20.624H90.3608V22.8855H95.4126V25.0673H90.3608V27.4085H96.1727V29.5744H88.0171V18.458Z" fill="#F26432"/>
<path d="M53.3677 39.9105C53.3677 36.7412 55.6639 34.1611 58.9578 34.1611C60.9848 34.1611 62.1092 34.9574 63.1069 35.9767L61.6975 37.6649C60.874 36.8845 60.1614 36.4226 58.942 36.4226C57.1367 36.4226 55.8381 37.9834 55.8381 39.9264C55.8381 41.8375 57.105 43.4301 58.942 43.4301C60.1614 43.4301 60.9215 42.9205 61.7608 42.1242L63.2653 43.7964C62.1567 45.0227 60.9373 45.6916 58.8628 45.6916C55.7114 45.6598 53.3677 43.1434 53.3677 39.9105Z" fill="#F26432"/>
<path d="M69.3308 34.3525H66.9712V45.4849H69.3308V34.3525Z" fill="#F26432"/>
<path d="M72.9409 34.3525H77.1217C80.4948 34.3525 82.8227 36.7574 82.8227 39.9107C82.8227 43.0482 80.4948 45.4689 77.1217 45.4689H72.9409V34.3525ZM77.1217 43.2711C79.0537 43.2711 80.3522 41.9174 80.3522 39.9107C80.3522 37.9359 79.0537 36.5503 77.1217 36.5503H75.3005V43.2552H77.1217V43.2711Z" fill="#F26432"/>
<path d="M84.7393 39.9105C84.7393 36.7412 87.1464 34.1611 90.4561 34.1611C93.7659 34.1611 96.1413 36.7252 96.1413 39.9105C96.1413 43.0797 93.7342 45.6598 90.4245 45.6598C87.1147 45.6598 84.7393 43.1116 84.7393 39.9105ZM93.6709 39.9105C93.6709 37.9993 92.3248 36.4067 90.4245 36.4067C88.5241 36.4067 87.2097 37.9675 87.2097 39.9105C87.2097 41.8216 88.5558 43.4142 90.4561 43.4142C92.3565 43.4142 93.6709 41.8534 93.6709 39.9105Z" fill="#F26432"/>
<defs>
<radialGradient id="paint0_radial_170_1360" cx="0" cy="0" r="1" gradientUnits="userSpaceOnUse" gradientTransform="translate(21.1119 24.0036) scale(21.115 24.0017)">
<stop stop-color="#F18536"/>
<stop offset="0.00233548" stop-color="#F18536"/>
<stop offset="0.3115" stop-color="#F27334"/>
<stop offset="0.6457" stop-color="#F26832"/>
<stop offset="0.999" stop-color="#F26432"/>
<stop offset="1" stop-color="#F26432"/>
</radialGradient>
</defs>
</svg>
